<svg xmlns="http://www.w3.org/2000/svg" width="800" height="450" viewBox="0 0 800 450" role="img" aria-labelledby="title desc">
  <title id="title">Dashboards Grafana</title>
  <desc id="desc">Tarjetas con graficas de lineas y barras representando dashboards de Grafana.</desc>
  <defs>
    <linearGradient id="bg" x1="0%" y1="0%" x2="100%" y2="100%">
      <stop offset="0%" stop-color="#f4f8ff" />
      <stop offset="100%" stop-color="#e9f0fa" />
    </linearGradient>
    <linearGradient id="line" x1="0%" y1="0%" x2="100%" y2="0%">
      <stop offset="0%" stop-color="#ff7a18" />
      <stop offset="100%" stop-color="#11a7a2" />
    </linearGradient>
  </defs>
  <rect width="800" height="450" fill="url(#bg)" />
  <rect x="80" y="70" width="640" height="310" rx="28" fill="#11243a" />
  <rect x="118" y="112" width="190" height="112" rx="14" fill="#1a314c" />
  <rect x="332" y="112" width="190" height="112" rx="14" fill="#1a314c" />
  <rect x="546" y="112" width="136" height="250" rx="14" fill="#1a314c" />
  <rect x="118" y="248" width="404" height="114" rx="14" fill="#1a314c" />
  <polyline points="132,198 172,168 212,184 252,142 292,170" fill="none" stroke="url(#line)" stroke-width="5" />
  <rect x="350" y="196" width="22" height="14" fill="#11a7a2" />
  <rect x="378" y="176" width="22" height="34" fill="#ff7a18" />
  <rect x="406" y="156" width="22" height="54" fill="#11a7a2" />
  <rect x="434" y="166" width="22" height="44" fill="#ff7a18" />
  <rect x="462" y="146" width="22" height="64" fill="#11a7a2" />
  <polyline points="136,338 186,298 234,312 286,278 334,301 382,268 430,293 478,258" fill="none" stroke="#ffb347" stroke-width="5" />
  <text x="118" y="98" font-family="Sora, Arial, sans-serif" font-size="22" fill="#f1f6ff">GRAFANA DASHBOARDS</text>
</svg>
